# xmcd
#
# Track frame offsets: 
#        150
#        13615
#        26742
#        42700
#        52347
#        61147
#        70765
#        82547
#        91462
#        102377
#        112740
#        122710
#        132010
#        141820
#        153787
#        167402
#        179697
#        189927
#        201712
#        216115
#        231127
#
# Disc length: 3298 seconds
#
# Revision: 0
# Processed by: cddbd v1.5.2PL0 Copyright (c) Steve Scherf et al.
# Submitted via: ExactAudioCopy v0.95b3
#
DISCID=210ce015
DTITLE=Herman's Hermits  - Herman's Hermits '66 [Japan 1993]  
DYEAR=1900
DGENRE=
TTITLE0=Just A Little Bit Better
TTITLE1=Heartbeat
TTITLE2=I'll Never Dance Again
TTITLE3=I Know Why
TTITLE4=Take Love Give Love
TTITLE5=Thinking Of You
TTITLE6=The Man With The Cigar
TTITLE7=A Must To Avoid
TTITLE8=Mother In Law
TTITLE9=Tell Me Baby
TTITLE10=I Wonder
TTITLE11=Your Hand In Mine
TTITLE12=Don't Try To Hurt Me
TTITLE13=There's A Kind Of Hush
TTITLE14=No Milk Today
TTITLE15=Museum
TTITLE16=Don't Go Out Into The Rain (You're Going To Melt)
TTITLE17=I Can't Take Or Leave Your Lovin'
TTITLE18=Something Is Happening
TTITLE19=My Sentimental Friend
TTITLE20=Years May Come, Years May Go
EXTD=
EXTT0=
EXTT1=
EXTT2=
EXTT3=
EXTT4=
EXTT5=
EXTT6=
EXTT7=
EXTT8=
EXTT9=
EXTT10=
EXTT11=
EXTT12=
EXTT13=
EXTT14=
EXTT15=
EXTT16=
EXTT17=
EXTT18=
EXTT19=
EXTT20=
PLAYORDER=
